<svg xmlns="http://www.w3.org/2000/svg" width="726" height="164"><g fill="#ffad00"><path d="M74.5 35.9c2.1.8 3.9 2.1 5.5 3.7s2.9 3.4 3.7 5.5a16.9 16.9 0 0 1-9.2 22.2 17 17 0 0 1-22.2-22.2 16.9 16.9 0 0 1 22.2-9.2zm114.4 0c2.1.8 4 2.1 5.6 3.7 1.6 1.5 2.8 3.4 3.7 5.5a18 18 0 0 1 1.3 6.5l-.1 1.1-.1 1.6h-33.7l-.1-1.6-.1-1.1a17.2 17.2 0 0 1 17-17c2.3 0 4.5.4 6.5 1.3z"/><path fill-rule="evenodd" d="M233.1 33.2a81.3 81.3 0 0 1-107.9 118.4 81.4 81.4 0 1 1 0-138.6q4.8-3 10-5.3 5.1-2.2 10.6-3.8 5.4-1.5 11-2.3 5.6-.8 11.3-.8c25.5 0 49.6 12 65 32.4zm-91.2 28.1q-1.7-4.8-4.1-9.3-2.5-4.5-5.7-8.6-3.1-4-6.9-7.5-3.8 3.5-7 7.5-3.1 4.1-5.6 8.6-2.5 4.5-4.2 9.3-1.7 4.8-2.6 9.9c2.9 1.8 6 3.3 9.3 4.2a34.8 34.8 0 0 0 20.2 0c3.3-.9 6.4-2.4 9.3-4.2q-.9-5.1-2.7-9.9zm-9.4 59.5q3.2-4.3 5.8-9 2.5-4.8 4.2-10 1.6-5.1 2.4-10.4-4.7 1.8-9.7 2.8-5 .9-10 .9-5.1 0-10-.9-5-1-9.7-2.8.8 5.3 2.4 10.4 1.7 5.2 4.2 10 2.5 4.7 5.8 9t7.3 7.9q4-3.6 7.3-7.9zM27 112.9a62.2 62.2 0 0 0 51.8 32.6c10.7.6 21.4-1.6 31-6.2a82.7 82.7 0 0 1-23.2-57 80.7 80.7 0 0 1 23.2-56.9 62.6 62.6 0 0 0-61.1 3.4A61.2 61.2 0 0 0 27 51.7a63.1 63.1 0 0 0-7.9 30.6c0 10.7 2.7 21.3 7.9 30.6zm190.5 8.8a63.1 63.1 0 0 0-76.9-96.3 80.5 80.5 0 0 1 23.2 56.9 81.2 81.2 0 0 1-23.2 57q3.2 1.5 6.6 2.7 3.3 1.2 6.8 2t7 1.2q3.5.4 7.1.4c19.2 0 37.4-8.8 49.4-23.9z"/></g><g fill="#2271b3"><path d="M343.3 65.4q2.4.7 4.5 2.1 2.1 1.3 3.8 3.1 1.7 1.7 2.9 3.9 1.2 2.1 1.9 4.5l.9 3.2.6 3.3.3 3.3.1 3.4v41H340V96.8q0-9-3.2-12.8-3.3-3.8-10-3.8-7.5 0-11.7 4.7-4.3 4.7-4.3 13.7v34.5h-18.3V30.4h18.3v42.8h.2l2.1-2.1 2.4-1.9 2.6-1.6q1.3-.8 2.7-1.4 2.7-1 5.5-1.6 2.8-.6 5.7-.7 2.9-.1 5.7.2 2.9.4 5.6 1.3z"/><path fill-rule="evenodd" d="M391.9 132.5q-2.6-.7-5.1-1.9-2.5-1.2-4.7-2.8-2.3-1.5-4.2-3.4-2-2-3.6-4.2l-1.5-2.2-1.3-2.4q-.7-1.2-1.2-2.5l-.9-2.6-.7-2.8-.5-2.8-.3-2.9-.1-2.9q-.1-1.8.1-3.6l.5-3.6q.3-1.8.8-3.5l1.2-3.4q.6-1.6 1.4-3.1.7-1.5 1.7-2.9l1.9-2.7 2.3-2.5q1.2-1.2 2.6-2.3l2.8-2q1.4-.9 3-1.6 1.5-.8 3.1-1.4 3.5-1.3 7.2-2t7.5-.7q3.7 0 7.4.7 3.7.6 7.2 1.9l3.2 1.4q1.5.7 2.9 1.6 1.5.9 2.8 2 1.4 1 2.6 2.2l2.3 2.5q1.1 1.3 2 2.7 1 1.4 1.8 2.9t1.4 3.1l1.2 3.4.8 3.6q.4 1.8.5 3.6l.2 3.7q0 2.4-.3 4.8-.2 2.3-.8 4.6-.6 2.4-1.5 4.6-.9 2.2-2 4.3-1.2 2-2.6 3.8-1.4 1.7-3 3.3-1.6 1.6-3.5 2.9-1.8 1.4-3.8 2.4l-4.4 2q-2.3.8-4.7 1.4-2.3.5-4.8.8-2.4.3-4.8.2l-3.1-.1-3-.3-3-.5-3-.8zm24.7-19.9q1.2-1.4 2.2-2.9 1-1.6 1.7-3.4.6-1.7.9-3.5.3-1.8.3-3.7 0-8.3-5-13.6a18.1 18.1 0 0 0-19.7-3.9c-2.2 1-4.2 2.3-5.8 4a20.1 20.1 0 0 0-5 13.4c0 2.5.5 4.9 1.3 7.2.9 2.3 2.1 4.4 3.7 6.3q1.2 1.3 2.7 2.3 1.5 1.1 3.1 1.8 1.7.7 3.4 1 1.8.3 3.6.3t3.5-.3q1.7-.4 3.3-1 1.7-.7 3.1-1.7 1.5-1 2.7-2.3z"/><path d="M551.3 71.1q6.2 7.3 6.2 22.4v39.6h-18.2V97.9q0-17.7-11.9-17.7l-1.9.2-1.8.4q-.9.2-1.7.6l-1.6 1-1.6 1.3-1.4 1.5-1.1 1.7-.9 1.9-.9 2.5-.6 2.5-.3 2.6-.1 2.6v34.1h-18.2V97.9q0-17.7-12-17.7l-2 .2-1.9.3-1.8.7q-.9.4-1.7 1-.8.5-1.6 1.3-.8.7-1.4 1.5l-1.2 1.7-.9 1.9-.9 2.5-.6 2.5-.4 2.6V133h-18.3V65h18.3v9h.2q.9-1.2 2-2.2l2.2-2.1 2.5-1.7 2.6-1.5q1.3-.7 2.6-1.1l2.7-.9 2.8-.5 2.9-.1q14.2 0 20.2 11h.2q1-1.3 2.2-2.5 1.1-1.2 2.4-2.2l2.7-1.9q1.4-.9 3-1.6 1.5-.7 3.2-1.2 1.6-.6 3.3-.9l3.4-.6 3.5-.1q11.5-.1 17.8 7.2z"/><path fill-rule="evenodd" d="M637.6 65v68.1h-17.3v-8.3h-.4q-7.3 9.4-20.3 9.4l-3.4-.1-3.3-.5-3.2-.8-3.1-1.1-2.9-1.3-2.7-1.7-2.5-1.9q-1.2-1-2.3-2.2-1.1-1.1-2.1-2.4l-1.8-2.7q-.9-1.4-1.6-2.9l-1.3-3q-1.2-3.5-1.8-7.1-.6-3.6-.6-7.2 0-3.7.6-7.3.6-3.6 1.8-7l1.3-3q.7-1.5 1.6-2.9l1.8-2.8 2.1-2.5q1-1.2 2.2-2.2 1.2-1.1 2.5-2l2.6-1.7q1.4-.8 2.9-1.4l3-1.2 3.2-.8 3.2-.5q1.6-.2 3.3-.2 12.4 0 20 8.9h.3V65zm-22.4 47.7q5-5.2 5-13.4 0-1.9-.3-3.7-.3-1.8-.9-3.6-.6-1.7-1.5-3.3-1-1.6-2.2-3-1.1-1.3-2.5-2.4-1.4-1-3-1.7t-3.3-1.1q-1.8-.3-3.5-.3t-3.5.3q-1.7.3-3.3 1-1.6.7-3.1 1.7-1.4 1-2.6 2.3-5 5.2-5 13.8 0 8.2 4.9 13.4a17.3 17.3 0 0 0 5.7 3.8 17.1 17.1 0 0 0 19.1-3.8z"/><path d="m655.6 53.9-1.2-.8-1.1-.9q-.6-.5-1-1.1l-.8-1.2-.7-1.3-.5-1.4-.2-1.4-.1-1.5.2-2.2q.2-1.1.6-2.1.4-1 1.1-1.9.6-.9 1.4-1.6c1-1.1 2.3-1.9 3.6-2.5a12.6 12.6 0 0 1 8.7 0c1.4.6 2.6 1.4 3.7 2.5q.8.7 1.4 1.6l1.1 1.9q.4 1 .6 2.1l.2 2.2-.2 2.2q-.2 1.1-.6 2.1l-1.1 1.9q-.6.9-1.4 1.7-.8.8-1.7 1.4l-2 1q-1 .5-2.1.7-1.1.2-2.2.1h-1.5l-1.5-.3-1.4-.5-1.3-.7zM652.1 65h18.3v68.1h-18.3zm73.9-1.1v20l-4.8-.2q-8.2 0-12.8 5-4.6 5-4.6 12.8v31.6h-18.3V65h18.3v10h.2q.9-1.3 1.9-2.4l2.2-2.3 2.5-1.9 2.6-1.7q1.3-.7 2.7-1.2 1.3-.6 2.8-.9 1.4-.4 2.9-.6l3-.2h.3l.4.1h.7z"/></g></svg>
