<svg width="176" height="52" viewBox="0 0 176 52" fill="none" xmlns="http://www.w3.org/2000/svg">
    <path d="M75.7315 11.688H79.5278C79.4729 8.34127 76.7286 6.03064 72.5572 6.03064C68.4498 6.03064 65.4402 8.30459 65.4585 11.7155C65.4493 14.4846 67.3978 16.0709 70.5629 16.8319L72.6029 17.3454C74.6429 17.8405 75.7772 18.4274 75.7863 19.6927C75.7772 21.0681 74.4782 22.0033 72.4657 22.0033C70.4074 22.0033 68.9255 21.0497 68.7974 19.1701H64.9645C65.0651 23.232 67.965 25.3317 72.5114 25.3317C77.0853 25.3317 79.7748 23.1403 79.7839 19.7019C79.7748 16.5752 77.4238 14.9156 74.1672 14.182L72.484 13.7786C70.8557 13.4027 69.4926 12.7975 69.5201 11.4496C69.5201 10.2393 70.5904 9.34988 72.5297 9.34988C74.4233 9.34988 75.5851 10.2118 75.7315 11.688Z" fill="#4EBC9B"/>
    <path d="M86.272 16.9236C86.2812 15.1081 87.3881 14.0445 88.9798 14.0445C90.5624 14.0445 91.4954 15.0623 91.4863 16.7952V25.0658H95.3833V16.0984C95.3924 12.7975 93.4531 10.7986 90.5258 10.7986C88.3943 10.7986 86.9673 11.8072 86.3269 13.4668H86.1623V6.28738H82.3751V25.0658H86.272V16.9236Z" fill="#4EBC9B"/>
    <path d="M104.854 25.3409C108.33 25.3409 110.672 23.6446 111.22 21.0314L107.616 20.793C107.223 21.8658 106.217 22.4251 104.918 22.4251C102.969 22.4251 101.734 21.1323 101.734 19.0325V19.0234H111.303V17.9506C111.303 13.1643 108.412 10.7986 104.698 10.7986C100.563 10.7986 97.8829 13.7419 97.8829 18.0881C97.8829 22.5535 100.527 25.3409 104.854 25.3409ZM101.734 16.6027C101.816 14.9981 103.033 13.7144 104.762 13.7144C106.454 13.7144 107.625 14.9247 107.634 16.6027H101.734Z" fill="#4EBC9B"/>
    <path d="M113.846 25.0658H117.743V17.0978C117.743 15.3649 119.005 14.1729 120.725 14.1729C121.265 14.1729 122.006 14.2646 122.372 14.3838V10.9178C122.024 10.8353 121.539 10.7803 121.146 10.7803C119.572 10.7803 118.283 11.6972 117.77 13.4393H117.624V10.982H113.846V25.0658Z" fill="#4EBC9B"/>
    <path d="M128.283 6.28738H124.386V25.0658H128.283V6.28738Z" fill="#4EBC9B"/>
    <path d="M137.754 25.3409C142.017 25.3409 144.669 22.416 144.669 18.0789C144.669 13.7144 142.017 10.7986 137.754 10.7986C133.491 10.7986 130.838 13.7144 130.838 18.0789C130.838 22.416 133.491 25.3409 137.754 25.3409ZM137.772 22.3151C135.805 22.3151 134.799 20.5088 134.799 18.0514C134.799 15.5941 135.805 13.7786 137.772 13.7786C139.702 13.7786 140.708 15.5941 140.708 18.0514C140.708 20.5088 139.702 22.3151 137.772 22.3151Z" fill="#4EBC9B"/>
    <path d="M153.552 25.3409C157.293 25.3409 159.644 23.1403 159.827 19.9036H156.15C155.921 21.4073 154.933 22.2509 153.598 22.2509C151.777 22.2509 150.597 20.7197 150.597 18.0239C150.597 15.3649 151.786 13.8428 153.598 13.8428C155.025 13.8428 155.94 14.7872 156.15 16.1901H159.827C159.663 12.935 157.202 10.7986 153.534 10.7986C149.271 10.7986 146.636 13.7603 146.636 18.0789C146.636 22.3609 149.225 25.3409 153.552 25.3409Z" fill="#4EBC9B"/>
    <path d="M162.322 25.0658H166.219V20.5913L167.271 19.3901L171.104 25.0658H175.669L170.19 17.0795L175.404 10.982H170.931L166.43 16.3276H166.219V6.28738H162.322V25.0658Z" fill="#4EBC9B"/>
    <path d="M67.6486 43.7831C67.6486 41.4796 69.116 40.1731 71.1153 40.1731C73.0203 40.1731 74.1701 41.3765 74.1701 43.4737V51.7249H76.1952V43.3361C76.1952 39.9411 74.3932 38.351 71.6988 38.351C69.6222 38.351 68.4381 39.2191 67.8202 40.5857H67.6486V34.1222H65.6235V51.7249H67.6486V43.7831Z" fill="#4EBC9B"/>
    <path d="M85.2545 52C88.8242 52 91.2268 49.2839 91.2268 45.1927C91.2268 41.067 88.8242 38.351 85.2545 38.351C81.6848 38.351 79.2822 41.067 79.2822 45.1927C79.2822 49.2839 81.6848 52 85.2545 52ZM85.2545 50.1778C82.5429 50.1778 81.3073 47.84 81.3073 45.1927C81.3073 42.5454 82.5429 40.1731 85.2545 40.1731C87.9661 40.1731 89.2017 42.5454 89.2017 45.1927C89.2017 47.84 87.9661 50.1778 85.2545 50.1778Z" fill="#4EBC9B"/>
    <path d="M94.3181 51.7249H96.3432V43.4737C96.3432 41.5398 97.7504 40.1731 99.3293 40.1731C100.865 40.1731 101.938 41.1788 101.938 42.6829V51.7249H103.997V43.1298C103.997 41.428 105.061 40.1731 106.915 40.1731C108.356 40.1731 109.592 40.9381 109.592 42.8892V51.7249H111.617V42.8892C111.617 39.7864 109.952 38.351 107.601 38.351C105.714 38.351 104.332 39.2191 103.654 40.5857H103.517C102.865 39.1761 101.715 38.351 99.9815 38.351C98.2653 38.351 96.9953 39.1761 96.4461 40.5857H96.2745V38.5229H94.3181V51.7249Z" fill="#4EBC9B"/>
    <path d="M120.846 52C123.523 52 125.48 50.6591 126.097 48.6651L124.141 48.115C123.626 49.4902 122.433 50.1778 120.846 50.1778C118.469 50.1778 116.83 48.6393 116.736 45.8115H126.303V44.952C126.303 40.0356 123.386 38.351 120.64 38.351C117.07 38.351 114.702 41.1702 114.702 45.227C114.702 49.2839 117.036 52 120.846 52ZM116.736 44.0581C116.873 42.0039 118.323 40.1731 120.64 40.1731C122.837 40.1731 124.244 41.8234 124.244 44.0581H116.736Z" fill="#4EBC9B"/>
    <path d="M138.72 41.4796C138.085 39.6059 136.661 38.351 134.052 38.351C131.272 38.351 129.212 39.9325 129.212 42.1672C129.212 43.9894 130.294 45.2099 132.713 45.7771L134.91 46.2928C136.24 46.6023 136.867 47.2383 136.867 48.1494C136.867 49.2839 135.665 50.2122 133.777 50.2122C132.121 50.2122 131.083 49.4988 130.723 48.0806L128.8 48.5619C129.272 50.8053 131.117 52 133.812 52C136.875 52 138.96 50.3239 138.96 48.0462C138.96 46.2069 137.81 45.0466 135.459 44.4707L133.503 43.9894C131.941 43.6026 131.237 43.0783 131.237 42.0641C131.237 40.9295 132.439 40.1044 134.052 40.1044C135.82 40.1044 136.549 41.0842 136.901 41.9953L138.72 41.4796Z" fill="#4EBC9B"/>
    <path d="M143.485 51.8624C144.334 51.8624 145.029 51.1662 145.029 50.3153C145.029 49.4644 144.334 48.7682 143.485 48.7682C142.635 48.7682 141.94 49.4644 141.94 50.3153C141.94 51.1662 142.635 51.8624 143.485 51.8624Z" fill="#4EBC9B"/>
    <path d="M154.018 52C156.935 52 158.857 50.2122 159.2 47.8743H157.175C156.798 49.3183 155.596 50.1778 154.018 50.1778C151.615 50.1778 150.07 48.1838 150.07 45.1239C150.07 42.1328 151.649 40.1731 154.018 40.1731C155.802 40.1731 156.866 41.2733 157.175 42.4766H159.2C158.857 40.0012 156.763 38.351 153.983 38.351C150.414 38.351 148.045 41.1702 148.045 45.1927C148.045 49.1464 150.311 52 154.018 52Z" fill="#4EBC9B"/>
    <path d="M164.186 43.7831C164.186 41.4796 165.653 40.1731 167.653 40.1731C169.558 40.1731 170.707 41.3765 170.707 43.4737V51.7249H172.733V43.3361C172.733 39.9411 170.931 38.351 168.236 38.351C166.16 38.351 164.975 39.2191 164.358 40.5857H164.186V34.1222H162.161V51.7249H164.186V43.7831Z" fill="#4EBC9B"/>
    <path d="M48.6621 16.9895L30.1654 1.64163C27.5274 -0.54721 23.6946 -0.54721 21.0566 1.64163L2.55989 16.9895C0.938224 18.335 0 20.3286 0 22.4309V44.6141C0 48.5259 3.18475 51.6976 7.11432 51.6976H44.1077C48.0363 51.6976 51.222 48.5259 51.222 44.6141V22.4309C51.222 20.3286 50.2838 18.335 48.6621 16.9895ZM23.6239 38.8816C17.1995 38.1954 11.3647 35.1837 7.82938 31.733L12.3587 27.3126C14.8721 29.7655 19.3577 32.1375 24.3204 32.6666C29.1454 33.1817 34.3303 31.9608 38.7145 27.387L43.3917 31.6577C37.4564 37.8514 30.1868 39.5827 23.6239 38.8816Z" fill="#4EBC9B"/>
</svg>